:FULLY-SPECIFIED
:FORCE-ALL-JOINTS-BE-3DOF
:DEGREES
2242
root -0.731913 13.7956 -16.3519 -169.902 -26.6115 169.262
lfemur 10.3494 -0.786049 -14.9131
ltibia 35.5115 -0 0
lfoot -24.2576 36.775 0.0100097
ltoes -43.4992 0 0
rfemur -70.5033 -22.8995 8.58115
rtibia 72.5064 -0 0
rfoot -5.33776 14.101 -0.0381518
rtoes 3.2676 -0 0
lowerback 9.89685 1.9069 -13.6251
upperback -2.68287 0.415697 -1.85276
thorax -8.66647 0.779906 5.59133
lowerneck 1.05883 -12.0379 -12.4446
upperneck 4.88809 -16.7926 10.5512
head 3.21977 -8.43964 4.44858
lclavicle 4.0867e-15 2.42431e-14 -6.48626e-31
lhumerus -69.7155 -17.9138 103.948
lradius 102.433 -0 0
lwrist 61.0114 0 0
lhand -11.7985 60.4682 -0.000265982
lfingers 7.12502 -0 0
lthumb 14.264 128.627 -0.038596
rclavicle 4.0867e-15 2.42431e-14 -6.48626e-31
rhumerus 48.9689 -9.19114 -59.1446
rradius 16.8941 -0 0
rwrist 34.2229 0 0
rhand -19.6383 -42.6727 -0.000318662
rfingers 7.12502 -0 0
rthumb 6.689 -72.5462 -0.0002402
2243
root -0.734166 13.791 -16.3884 -169.676 -26.5542 169.153
lfemur 10.5408 -0.833567 -14.9998
ltibia 35.0316 -0 0
lfoot -24.1204 36.7982 0.00925882
ltoes -43.705 0 0
rfemur -70.7989 -23.0049 8.63299
rtibia 72.7967 -0 0
rfoot -5.54665 14.1591 -0.0352893
rtoes 3.41243 -0 0
lowerback 9.80355 1.91244 -13.6709
upperback -2.72538 0.423181 -1.8896
thorax -8.66246 0.785397 5.57498
lowerneck 1.03965 -12.0497 -12.4251
upperneck 4.85224 -16.801 10.5432
head 3.21084 -8.44239 4.44258
lclavicle 4.66232e-15 2.46018e-14 -5.99979e-31
lhumerus -69.6985 -17.9576 103.958
lradius 102.386 -0 0
lwrist 61.0561 0 0
lhand -11.7958 60.4377 -0.000246033
lfingers 7.12502 -0 0
lthumb 14.2665 124.73 -0.0352726
rclavicle 4.66232e-15 2.46018e-14 -5.99979e-31
rhumerus 48.9981 -9.25015 -59.1087
rradius 16.9032 -0 0
rwrist 34.2117 0 0
rhand -19.6645 -42.6688 -0.000294762
rfingers 7.12502 -0 0
rthumb 6.6637 -72.5432 -0.000222184
2244
root -0.736419 13.7864 -16.4249 -169.451 -26.4964 169.044
lfemur 10.7323 -0.880795 -15.0866
ltibia 34.5516 -0 0
lfoot -23.9832 36.8214 0.00845238
ltoes -43.9108 0 0
rfemur -71.0948 -23.11 8.68546
rtibia 73.087 -0 0
rfoot -5.75554 14.2172 -0.0322149
rtoes 3.55725 -0 0
lowerback 9.71023 1.91791 -13.7167
upperback -2.7679 0.430638 -1.92644
thorax -8.65845 0.790888 5.55863
lowerneck 1.02047 -12.0615 -12.4056
upperneck 4.8164 -16.8095 10.5352
head 3.20191 -8.44514 4.43658
lclavicle 5.23795e-15 2.49605e-14 -5.47729e-31
lhumerus -69.6815 -18.0015 103.968
lradius 102.339 -0 0
lwrist 61.1008 0 0
lhand -11.793 60.4072 -0.000224606
lfingers 7.12502 -0 0
lthumb 14.2688 120.832 -0.0317841
rclavicle 5.23795e-15 2.49605e-14 -5.47729e-31
rhumerus 49.0273 -9.30917 -59.0727
rradius 16.9123 -0 0
rwrist 34.2005 0 0
rhand -19.6907 -42.665 -0.000269091
rfingers 7.12502 -0 0
rthumb 6.6384 -72.5402 -0.000202835
2245
root -0.738672 13.7818 -16.4614 -169.226 -26.4383 168.936
lfemur 10.9238 -0.927733 -15.1736
ltibia 34.0716 -0 0
lfoot -23.8461 36.8446 0.00759034
ltoes -44.1166 0 0
rfemur -71.3911 -23.2148 8.73856
rtibia 73.3773 -0 0
rfoot -5.96442 14.2753 -0.0289288
rtoes 3.70208 -0 0
lowerback 9.61692 1.9233 -13.7625
upperback -2.81042 0.438068 -1.96329
thorax -8.65445 0.796381 5.54228
lowerneck 1.00127 -12.0733 -12.3862
upperneck 4.78055 -16.8179 10.5272
head 3.19298 -8.4479 4.43058
lclavicle 5.81357e-15 2.53192e-14 -4.91875e-31
lhumerus -69.6645 -18.0453 103.978
lradius 102.292 -0 0
lwrist 61.1455 0 0
lhand -11.7902 60.3766 -0.000201702
lfingers 7.12502 -0 0
lthumb 14.2709 116.935 -0.0281469
rclavicle 5.81357e-15 2.53192e-14 -4.91875e-31
rhumerus 49.0564 -9.3682 -59.0368
rradius 16.9214 -0 0
rwrist 34.1893 0 0
rhand -19.7169 -42.6611 -0.000241651
rfingers 7.12502 -0 0
rthumb 6.6131 -72.5372 -0.000182151
2246
root -0.740925 13.7773 -16.4979 -169.001 -26.3798 168.828
lfemur 11.1155 -0.974379 -15.2608
ltibia 33.5916 -0 0
lfoot -23.7089 36.8678 0.00667272
ltoes -44.3224 0 0
rfemur -71.6876 -23.3194 8.7923
rtibia 73.6677 -0 0
rfoot -6.17331 14.3334 -0.0254309
rtoes 3.8469 -0 0
lowerback 9.52359 1.92861 -13.8083
upperback -2.85294 0.44547 -2.00014
thorax -8.65044 0.801875 5.52593
lowerneck 0.982078 -12.0851 -12.3667
upperneck 4.7447 -16.8263 10.5192
head 3.18405 -8.45065 4.42458
lclavicle 6.3892e-15 2.56778e-14 -4.32418e-31
lhumerus -69.6475 -18.0891 103.988
lradius 102.246 -0 0
lwrist 61.1902 0 0
lhand -11.7874 60.3461 -0.00017732
lfingers 7.12502 -0 0
lthumb 14.2727 113.038 -0.0243778
rclavicle 6.3892e-15 2.56778e-14 -4.32418e-31
rhumerus 49.0855 -9.42725 -59.0009
rradius 16.9304 -0 0
rwrist 34.1781 0 0
rhand -19.7431 -42.6572 -0.00021244
rfingers 7.12502 -0 0
rthumb 6.58779 -72.5341 -0.000160132
